# AST/ASF file generated using VICON BodyLanguage
# -----------------------------------------------
:version 1.10
:name VICON
:units
  mass 1.0
  length 0.45
  angle deg
:documentation
   .ast/.asf automatically generated from VICON data using
   VICON BodyBuilder and BodyLanguage model FoxedUp or BRILLIANT.MOD
:root
   order TX TY TZ RX RY RZ
   axis XYZ
   position 0 0 0  
   orientation 0 0 0 
:bonedata
  begin
     id 1 
     name lhipjoint
     direction 0.722297 -0.617336 0.311742 
     length 2.6635 
     axis 0 0 0  XYZ
  end
  begin
     id 2 
     name lfemur
     direction 0.34202 -0.939693 0  
     length 7.39349  
     axis 0 0 20  XYZ
    dof rx ry rz
    limits (-160.0 20.0)
           (-70.0 70.0)
           (-60.0 70.0)
  end
  begin
     id 3 
     name ltibia
     direction 0.34202 -0.939693 0   
     length 7.36294   
     axis 0 0 20   XYZ
    dof rx
    limits (-10.0 170.0)
  end
  begin
     id 4 
     name lfoot
     direction 0.104879 -0.288152 0.951824   
     length 2.16981   
     axis -90 7.62852e-016 20   XYZ
    dof rx rz
    limits (-45.0 90.0)
           (-70.0 20.0)
  end
  begin
     id 5 
     name ltoes
     direction 1.53586e-011 -4.21895e-011 1   
     length 1.08218   
     axis -90 7.62852e-016 20   XYZ
    dof rx
    limits (-90.0 20.0)
  end
  begin
     id 6 
     name rhipjoint
     direction -0.75102 -0.589393 0.297631   
     length 2.78977  
     axis 0 0 0  XYZ 
  end
  begin
     id 7 
     name rfemur
     direction -0.34202 -0.939693 0   
     length 7.46076   
     axis 0 0 -20   XYZ
    dof rx ry rz
    limits (-160.0 20.0)
           (-70.0 70.0)
           (-70.0 60.0)
  end
  begin
     id 8 
     name rtibia
     direction -0.34202 -0.939693 0   
     length 7.31726   
     axis 0 0 -20   XYZ
    dof rx
    limits (-10.0 170.0)
 end
 begin
     id 9 
     name rfoot
     direction -0.107991 -0.296704 0.948844   
     length 2.09388  
     axis -90 -7.62852e-016 -20   XYZ
    dof rx rz
    limits (-45.0 90.0)
           (-20.0 70.0)
  end
  begin
     id 10 
     name rtoes
     direction -1.53559e-011 -4.21911e-011 1   
     length 1.04433   
     axis -90 -7.62852e-016 -20   XYZ
    dof rx
    limits (-90.0 20.0)
  end
  begin
     id 11 
     name lowerback
     direction 0.0165164 0.98272 0.184358   
     length 1.71896   
     axis 0 0 0   XYZ
    dof rx ry rz
    limits (-20.0 45.0)
           (-30.0 30.0)
           (-30.0 30.0)
  end
  begin
     id 12 
     name upperback
     direction -0.00887249 0.992297 0.123566   
     length 1.71504   
     axis 0 0 0   XYZ
    dof rx ry rz
    limits (-20.0 45.0)
           (-30.0 30.0)
           (-30.0 30.0)
  end
  begin
     id 13 
     name thorax
     direction -0.0157026 0.998908 0.0440032   
     length 1.77022   
     axis 0 0 0   XYZ
    dof rx ry rz
    limits (-20.0 45.0)
           (-30.0 30.0)
           (-30.0 30.0)
  end
  begin
     id 14 
     name lowerneck
     direction -0.0238856 0.998137 0.0561411   
     length 1.89341   
     axis 0 0 0   XYZ
    dof rx ry rz
    limits (-20.0 45.0)
           (-30.0 30.0)
           (-30.0 30.0)
  end
  begin
     id 15 
     name upperneck
     direction 0.0276574 0.952253 -0.304056   
     length 1.86999   
     axis 0 0 0   XYZ
    dof rx ry rz
    limits (-20.0 45.0)
           (-30.0 30.0)
           (-30.0 30.0)
  end
  begin
     id 16
     name head
     direction 0.00800083 0.994258 -0.106712  
     length 1.91492  
     axis 0 0 0   XYZ
    dof rx ry rz
    limits (-20.0 45.0)
           (-30.0 30.0)
           (-30.0 30.0)
  end
  begin
     id 17 
     name lclavicle
     direction 0.97203 0.225407 0.06595  
     length 3.34889  
     axis 0 0 0   XYZ
    dof ry rz
    limits (-20.0 10.0)
           (0.0 20.0)
  end
  begin
     id 18 
     name lhumerus
     direction 1 -4.48973e-011 2.20267e-027   
     length 4.85645   
     axis 180 -30 -90   XYZ
    dof rx ry rz
    limits (-60.0 90.0)
           (-90.0 90.0)
           (-90.0 90.0)
  end
  begin
     id 19
     name lradius
     direction 1 -4.4897e-011 4.60472e-027   
     length 2.79874   
     axis 180 -30 -90   XYZ
    dof rx
    limits (-10.0 170.0)
  end
  begin
     id 20
     name lwrist
     direction 1 -4.48952e-011 1.14928e-026   
     length 1.39937   
     axis -6.29373e-015 90 90   XYZ
    dof ry
    limits (-180.0 0.0)
 end
  begin
     id 21 
     name lhand
     direction 1 -4.48967e-011 2.29886e-026   
     length 0.573398   
     axis -1.46689e-014 90 90   XYZ
    dof rx rz
    limits (-90.0 90.0)
           (-45.0 45.0)
  end
  begin
     id 22 
     name lfingers
     direction 1 -4.48955e-011 4.59726e-026   
     length 0.462289   
     axis -2.93383e-014 90 90   XYZ
    dof rx
    limits (0.0 90.0)
  end
  begin
     id 23
     name lthumb
     direction 0.707107 -6.34866e-011 0.707107   
     length 0.663757   
     axis -90 45 5.69224e-014   XYZ
    dof rx rz
    limits (-45.0 45.0)
           (-45.0 45.0)
  end
  begin
     id 24 
     name rclavicle
     direction -0.981571 0.157346 0.108443   
     length 3.35257  
     axis 0 0 0   XYZ 
    dof ry rz
    limits (-10.0 20.0)
           (-20.0 0.0)
  end
  begin
     id 25 
     name rhumerus
     direction -1 -4.48967e-011 8.58308e-029  
     length 4.67018   
     axis 180 30 90   XYZ
    dof rx ry rz
    limits (-90.0 60.0)
           (-90.0 90.0)
           (-90.0 90.0)
  end
  begin
     id 26 
     name rradius
     direction -1 -4.48958e-011 4.52548e-027   
     length 2.65534   
     axis 180 30 90   XYZ
    dof rx
    limits (-10.0 170.0)
  end
  begin
     id 27 
     name rwrist
     direction -1 -4.48977e-011 1.14952e-026   
     length 1.32767   
     axis -6.29373e-015 -90 -90   XYZ
    dof ry
    limits (-180.0 0.0)
  end
  begin
     id 28
     name rhand
     direction -1 -4.48924e-011 2.29804e-026   
     length 0.594069   
     axis -1.46689e-014 -90 -90   XYZ
    dof rx rz
    limits (-90.0 90.0)
           (-45.0 45.0)
  end
  begin
     id 29
     name rfingers
     direction -1 -4.48998e-011 4.59888e-026   
     length 0.478954   
     axis -2.93383e-014 -90 -90   XYZ
    dof rx
    limits (0.0 90.0)
  end
  begin
     id 30
     name rthumb
     direction -0.707107 -6.34933e-011 0.707107   
     length 0.687685   
     axis -90 -45 -5.69224e-014   XYZ
    dof rx rz
    limits (-45.0 45.0)
           (-45.0 45.0)
  end
:hierarchy
  begin
    root lhipjoint rhipjoint lowerback
    lhipjoint lfemur
    lfemur ltibia
    ltibia lfoot
    lfoot ltoes
    rhipjoint rfemur
    rfemur rtibia
    rtibia rfoot
    rfoot rtoes
    lowerback upperback
    upperback thorax
    thorax lowerneck lclavicle rclavicle
    lowerneck upperneck
    upperneck head
    lclavicle lhumerus
    lhumerus lradius
    lradius lwrist
    lwrist lhand lthumb
    lhand lfingers
    rclavicle rhumerus
    rhumerus rradius
    rradius rwrist
    rwrist rhand rthumb
    rhand rfingers
  end

#!OML:ASF E:\pregnant2\Project 1\Capture day 1\Session 1\pregnant2.ASF
:FULLY-SPECIFIED
:DEGREES
562
root 4.17429 17.0913 44.4199 36.007 22.3098 0.518442
lowerback -21.0083 1.33817 2.24159
upperback -16.3544 1.75528 -2.23286
thorax -6.12949 0.723879 -3.42759
lowerneck -3.35187 13.4432 18.8379
upperneck 25.3355 17.4241 -1.77469
head 10.6086 9.75698 -1.55714
rclavicle 1.05356e-014 1.55052e-014
rhumerus -77.9085 26.0893 -112.546
rradius 70.0051
rwrist -25.9646
rhand -19.2875 -35.4444
rfingers 7.12502
rthumb 7.02768 -65.3078
lclavicle 1.05356e-014 1.55052e-014
lhumerus -84.1555 -45.8392 123.788
lradius 68.1976
lwrist 7.7711
lhand -17.6017 33.356
lfingers 7.12502
lthumb 8.65476 63.1586
rfemur -43.4334 9.65495 14.2741
rtibia 23.2352
rfoot -15.4832 -20.2468
rtoes -0.0175112
lfemur -46.2993 -16.7269 -12.4845
ltibia 19.7337
lfoot -4.99956 12.9521
ltoes -17.9412
563
root 4.17643 17.0889 44.418 36.2048 22.3767 0.573278
lowerback -21.0896 1.32926 2.25308
upperback -16.4152 1.74311 -2.27843
thorax -6.16081 0.714011 -3.48591
lowerneck -3.45026 13.4269 18.8361
upperneck 25.298 17.3927 -1.83202
head 10.6139 9.73329 -1.57546
rclavicle -8.86083e-014 -1.27222e-014
rhumerus -78.0961 25.7278 -112.408
rradius 70.0823
rwrist -26.0567
rhand -18.6694 -34.7112
rfingers 7.12502
rthumb 7.62425 -64.5538
lclavicle -8.86083e-014 -1.27222e-014
lhumerus -84.8284 -45.6601 123.768
lradius 69.2579
lwrist 8.49419
lhand -17.4309 32.9179
lfingers 7.12502
lthumb 8.81952 62.7136
rfemur -43.6841 9.55463 14.2212
rtibia 23.3584
rfoot -15.5376 -20.2466
rtoes 0.0126539
lfemur -46.5134 -16.8155 -12.4095
ltibia 19.6783
lfoot -4.9228 12.9663
ltoes -17.9628
564
root 4.17762 17.0865 44.4157 36.3886 22.395 0.626365
lowerback -21.1478 1.32519 2.23354
upperback -16.469 1.74156 -2.32407
thorax -6.19506 0.712165 -3.5254
lowerneck -3.5755 13.4054 18.8425
upperneck 25.2742 17.3482 -1.89165
head 10.629 9.70369 -1.59517
rclavicle 9.14409e-015 -1.11319e-014
rhumerus -78.2799 25.3802 -112.218
rradius 70.2134
rwrist -26.2086
rhand -17.8394 -33.7818
rfingers 7.12502
rthumb 8.42531 -63.5938
lclavicle 9.14409e-015 -1.11319e-014
lhumerus -85.5173 -45.4942 123.72
lradius 70.4149
lwrist 9.12762
lhand -17.0991 32.351
lfingers 7.12502
lthumb 9.13971 62.1329
rfemur -43.9317 9.47739 14.1548
rtibia 23.4786
rfoot -15.5742 -20.2294
rtoes 0.0250091
lfemur -46.7075 -16.8798 -12.3563
ltibia 19.6343
lfoot -4.85535 13.0003
ltoes -17.9638
565
root 4.17791 17.0842 44.4134 36.5554 22.3745 0.673407
lowerback -21.1895 1.32517 2.18824
upperback -16.5153 1.74886 -2.3674
thorax -6.22811 0.71725 -3.54657
lowerneck -3.71886 13.3818 18.8555
upperneck 25.2609 17.2971 -1.95494
head 10.6518 9.67109 -1.61632
rclavicle 1.42131e-014 3.65764e-014
rhumerus -78.471 25.0558 -111.994
rradius 70.3854
rwrist -26.392
rhand -16.8307 -32.6463
rfingers 7.12502
rthumb 9.39869 -62.4168
lclavicle 1.42131e-014 3.65764e-014
lhumerus -86.2326 -45.3454 123.668
lradius 71.6365
lwrist 9.63184
lhand -16.6371 31.661
lfingers 7.12502
lthumb 9.58549 61.423
rfemur -44.1701 9.42454 14.082
rtibia 23.5936
rfoot -15.5989 -20.2014
rtoes 0.0193899
lfemur -46.8819 -16.9214 -12.3179
ltibia 19.6029
lfoot -4.79834 13.0491
ltoes -17.9515
566
root 4.17758 17.0821 44.4115 36.7043 22.331 0.712184
lowerback -21.2198 1.32631 2.12666
upperback -16.5555 1.75994 -2.40553
thorax -6.2597 0.726042 -3.55235
lowerneck -3.87259 13.3561 18.8713
upperneck 25.2604 17.2401 -2.01553
head 10.6806 9.63635 -1.63671
rclavicle 6.26172e-014 1.98785e-015
rhumerus -78.6899 24.7674 -111.77
rradius 70.5956
rwrist -26.595
rhand -15.7213 -31.3228
rfingers 7.12502
rthumb 10.4691 -61.0421
lclavicle 6.26172e-014 1.98785e-015
lhumerus -86.975 -45.2065 123.626
lradius 72.8982
lwrist 9.98552
lhand -16.09 30.8976
lfingers 7.12502
lthumb 10.1133 60.6346
rfemur -44.3909 9.39162 14.0101
rtibia 23.6973
rfoot -15.6137 -20.1694
rtoes -0.00156105
lfemur -47.0377 -16.9474 -12.2863
ltibia 19.5803
lfoot -4.74748 13.1062
ltoes -17.9373
567
root 4.17677 17.08 44.4102 36.8391 22.273 0.743338
lowerback -21.2495 1.32412 2.05106
upperback -16.5894 1.76851 -2.43503
thorax -6.28451 0.735455 -3.541
lowerneck -4.03148 13.3303 18.8881
upperneck 25.2714 17.1811 -2.0714
head 10.7142 9.60141 -1.65527
rclavicle 4.85532e-014 3.97569e-016
rhumerus -78.9558 24.5315 -111.585
rradius 70.8543
rwrist -26.8184
rhand -14.6441 -29.8587
rfingers 7.12502
rthumb 11.508 -59.5228
lclavicle 4.85532e-014 3.97569e-016
lhumerus -87.7364 -45.0733 123.605
lradius 74.1749
lwrist 10.1983
lhand -15.4973 30.1631
lfingers 7.12502
lthumb 10.6851 59.8714
rfemur -44.5936 9.37701 13.9393
rtibia 23.7847
rfoot -15.6228 -20.1375
rtoes -0.0134788
lfemur -47.1839 -16.9635 -12.2546
ltibia 19.5678
lfoot -4.70314 13.1709
ltoes -17.9124
568
root 4.17622 17.0782 44.4103 36.9593 22.2354 0.752822
lowerback -21.3044 1.31669 1.99234
upperback -16.6128 1.76747 -2.45012
thorax -6.28552 0.739723 -3.52411
lowerneck -4.19564 13.3055 18.9044
upperneck 25.2987 17.1211 -2.12023
head 10.7542 9.56697 -1.67067
rclavicle -2.66371e-014 1.23246e-014
rhumerus -79.2798 24.3524 -111.463
rradius 71.175
rwrist -27.0493
rhand -13.7071 -28.3134
rfingers 7.12502
rthumb 12.4115 -57.925
lclavicle -2.66371e-014 1.23246e-014
lhumerus -88.5037 -44.9396 123.599
lradius 75.4478
lwrist 10.2941
lhand -14.9547 29.5262
lfingers 7.12502
lthumb 11.2084 59.2068
rfemur -44.7692 9.3639 13.9014
rtibia 23.8536
rfoot -15.6332 -20.1085
rtoes -0.0226551
lfemur -47.3309 -16.9817 -12.1935
ltibia 19.5649
lfoot -4.66131 13.2349
ltoes -17.9001
569
root 4.1758 17.0768 44.4113 37.0682 22.2136 0.749741
lowerback -21.3783 1.30254 1.94298
upperback -16.6267 1.75606 -2.45236
thorax -6.26699 0.738945 -3.49942
lowerneck -4.36405 13.2816 18.9161
upperneck 25.3425 17.061 -2.16157
head 10.8001 9.53318 -1.6822
rclavicle -2.48481e-014 -3.97569e-016
rhumerus -79.6639 24.2295 -111.416
rradius 71.5688
rwrist -27.2571
rhand -12.9911 -26.7445
rfingers 7.12502
rthumb 13.1018 -56.3129
lclavicle -2.48481e-014 -3.97569e-016
lhumerus -89.2554 -44.7995 123.599
lradius 76.6948
lwrist 10.3116
lhand -14.5108 29.0553
lfingers 7.12502
lthumb 11.6365 58.7122
rfemur -44.9221 9.34903 13.8855
rtibia 23.9054
rfoot -15.6418 -20.0818
rtoes -0.0262587
lfemur -47.47 -16.9919 -12.1262
ltibia 19.5738
lfoot -4.63597 13.2864
ltoes -17.8886
570
root 4.17547 17.0755 44.4126 37.1653 22.2014 0.740667
lowerback -21.4625 1.2767 1.8945
upperback -16.6315 1.72903 -2.43978
thorax -6.23394 0.731152 -3.46105
lowerneck -4.52994 13.2618 18.9285
upperneck 25.4029 17.0068 -2.19868
head 10.8522 9.50301 -1.69114
rclavicle 9.56154e-014 5.36719e-014
rhumerus -80.1006 24.1623 -111.435
rradius 72.0386
rwrist -27.3773
rhand -12.4811 -25.1969
rfingers 7.12502
rthumb 13.5933 -54.7331
lclavicle 9.56154e-014 5.36719e-014
lhumerus -89.9449 -44.6346 123.557
lradius 77.8942
lwrist 10.2803
lhand -14.2059 28.7574
lfingers 7.12502
lthumb 11.9305 58.3974
rfemur -45.0547 9.3345 13.8813
rtibia 23.9446
rfoot -15.6471 -20.0587
rtoes -0.0208651
lfemur -47.6022 -16.9978 -12.0597
ltibia 19.5946
lfoot -4.62027 13.3289
ltoes -17.8871
571
root 4.17511 17.0744 44.414 37.2495 22.1976 0.732252
lowerback -21.5463 1.24252 1.84524
upperback -16.6276 1.69115 -2.41812
thorax -6.19198 0.718479 -3.41385
lowerneck -4.70174 13.2436 18.9387
upperneck 25.4874 16.954 -2.23169
head 10.9142 9.47425 -1.69704
rclavicle -7.74763e-014 2.8625e-014
rhumerus -80.5706 24.1324 -111.487
rradius 72.5731
rwrist -27.3342
rhand -12.1097 -23.707
rfingers 7.12502
rthumb 13.9513 -53.2189
lclavicle -7.74763e-014 2.8625e-014
lhumerus -90.5483 -44.45 123.45
lradius 79.0212
lwrist 10.2405
lhand -14.0421 28.565
lfingers 7.12502
lthumb 12.0885 58.1958
rfemur -45.1689 9.31512 13.8844
rtibia 23.981
rfoot -15.6536 -20.0363
rtoes -0.0125107
lfemur -47.7201 -17.0017 -12.003
ltibia 19.6265
lfoot -4.61967 13.361
ltoes -17.8793
